<?xml version="1.0" standalone="no"?>
<!DOCTYPE svg PUBLIC "-//W3C//DTD SVG 20010904//EN"
 "http://www.w3.org/TR/2001/REC-SVG-20010904/DTD/svg10.dtd">
<svg version="1.0" xmlns="http://www.w3.org/2000/svg"
 width="200.000000pt" height="200.000000pt" viewBox="0 0 200.000000 200.000000"
 preserveAspectRatio="xMidYMid meet">
<metadata>
Created by potrace 1.11, written by Peter Selinger 2001-2013
</metadata>
<g transform="translate(0.000000,200.000000) scale(0.100000,-0.100000)"
fill="#000000" stroke="none">
<path d="M875 1763 c-16 -3 -33 -8 -37 -12 -8 -7 15 -157 25 -167 3 -4 18 -4
32 0 21 5 24 11 19 30 -6 27 23 47 31 21 3 -8 7 -21 9 -29 3 -9 14 -12 30 -9
30 6 35 38 12 81 -7 15 -18 41 -22 57 -10 32 -32 38 -99 28z m45 -58 c0 -8 -4
-15 -10 -15 -5 0 -10 7 -10 15 0 8 5 15 10 15 6 0 10 -7 10 -15z"/>
<path d="M1082 1758 c-20 -26 -40 -74 -47 -115 -7 -43 -7 -43 24 -43 21 0 31
5 31 15 0 25 38 18 42 -7 2 -17 10 -23 28 -23 22 0 26 5 30 40 8 64 -8 132
-34 139 -34 9 -63 7 -74 -6z m44 -75 c-10 -10 -19 5 -10 18 6 11 8 11 12 0 2
-7 1 -15 -2 -18z"/>
<path d="M728 1719 c-22 -12 -23 -32 -2 -64 8 -13 14 -34 12 -47 -4 -22 -5
-21 -24 10 -38 67 -39 67 -68 54 l-26 -12 22 -44 c13 -24 38 -56 57 -72 l33
-27 34 18 c31 16 34 22 34 61 0 39 -35 134 -49 134 -4 0 -14 -5 -23 -11z"/>
<path d="M1246 1653 c-35 -72 -37 -78 -20 -90 26 -19 32 -17 53 25 12 22 20
30 21 20 0 -16 11 -23 33 -19 10 2 9 -6 -8 -40 -15 -28 -15 -30 10 -41 14 -6
27 -9 29 -7 8 9 77 151 74 154 -26 21 -50 24 -73 9 -25 -16 -25 -16 -25 13 0
22 -7 33 -25 41 -14 7 -27 12 -28 12 -2 0 -20 -35 -41 -77z"/>
<path d="M506 1561 c-26 -28 -27 -32 -16 -66 14 -41 65 -105 85 -105 23 0 40
30 28 50 -17 26 5 45 27 25 15 -14 19 -13 35 5 18 20 18 21 -11 51 -27 29 -92
69 -112 69 -4 0 -21 -13 -36 -29z m64 -51 c0 -5 -4 -12 -10 -15 -5 -3 -10 -4
-10 -1 0 2 -3 12 -6 20 -5 12 -2 15 10 10 9 -3 16 -10 16 -14z"/>
<path d="M1478 1556 c-34 -14 -88 -65 -88 -82 0 -6 7 -17 15 -24 12 -10 18
-10 30 0 23 19 43 -3 25 -25 -11 -14 -10 -19 6 -36 20 -20 20 -20 47 2 15 11
39 43 53 70 l25 50 -23 29 c-25 31 -47 35 -90 16z m42 -54 c0 -13 -12 -22 -22
-16 -10 6 -1 24 13 24 5 0 9 -4 9 -8z"/>
<path d="M382 1405 c-21 -26 -47 -84 -41 -89 19 -16 133 -76 144 -76 25 0 30
41 6 59 -29 23 -13 48 19 31 20 -11 25 -10 37 6 7 10 13 23 13 29 0 15 -66 46
-83 39 -8 -3 -20 2 -27 11 -18 22 -46 18 -68 -10z m48 -55 c0 -5 -4 -10 -10
-10 -5 0 -10 5 -10 10 0 6 5 10 10 10 6 0 10 -4 10 -10z"/>
<path d="M1615 1410 c-34 -13 -47 -36 -41 -72 l6 -33 -17 33 c-17 33 -28 38
-52 23 -11 -7 -8 -19 16 -62 25 -48 32 -54 58 -52 16 1 37 10 47 20 15 15 16
25 8 53 -9 32 -8 33 5 16 8 -11 15 -23 15 -28 0 -11 38 -10 45 2 6 11 -32 91
-49 102 -13 9 -15 9 -41 -2z"/>
<path d="M393 1121 c-59 -15 -63 -23 -63 -137 0 -96 2 -105 23 -118 53 -35
175 -27 197 14 5 10 10 59 10 109 0 80 -2 93 -22 111 -12 11 -29 20 -39 20 -9
0 -29 2 -45 4 -16 3 -44 1 -61 -3z m75 -139 c3 -61 2 -62 -23 -62 -24 0 -25 2
-25 58 0 63 5 74 30 70 11 -2 16 -19 18 -66z"/>
<path d="M127 1100 c-26 -21 -27 -26 -27 -114 0 -126 5 -131 112 -131 l83 0 3
29 c4 35 -10 46 -65 46 l-43 0 0 54 0 55 53 3 52 3 0 35 0 35 -71 3 c-59 2
-75 -1 -97 -18z"/>
<path d="M600 985 l0 -135 45 0 45 0 0 63 c1 47 3 58 11 45 5 -10 19 -18 31
-18 11 0 27 8 34 18 12 15 13 9 14 -45 l0 -63 45 0 46 0 -3 133 -3 132 -41 3
c-39 3 -43 1 -66 -39 l-26 -43 -21 42 c-20 40 -24 42 -66 42 l-45 0 0 -135z"/>
<path d="M914 1107 c-2 -7 -3 -67 -2 -133 l3 -119 43 -3 c42 -3 42 -3 42 31 0
33 1 35 45 40 67 7 85 28 85 98 0 50 -3 60 -26 78 -22 17 -41 21 -106 21 -55
0 -80 -4 -84 -13z m126 -87 c0 -13 -7 -20 -20 -20 -13 0 -20 7 -20 20 0 13 7
20 20 20 13 0 20 -7 20 -20z"/>
<path d="M1197 1093 c-30 -59 -48 -133 -45 -185 l3 -53 43 -3 c41 -3 42 -2 42
27 0 28 3 31 30 31 27 0 30 -3 30 -30 0 -29 2 -30 45 -30 l45 0 0 64 c0 45 -8
86 -26 135 l-26 71 -64 0 c-59 0 -64 -2 -77 -27z m87 -69 c10 -26 7 -34 -14
-34 -11 0 -20 4 -20 9 0 17 12 41 20 41 4 0 11 -7 14 -16z"/>
<path d="M1430 984 l0 -135 43 3 c41 3 42 4 45 41 3 35 6 38 30 35 23 -3 27
-8 30 -41 l3 -38 42 3 42 3 0 56 c0 34 -6 63 -15 74 -8 10 -13 34 -11 60 4 61
-19 75 -126 75 l-83 0 0 -136z m120 46 c0 -11 -7 -20 -15 -20 -8 0 -15 9 -15
20 0 11 7 20 15 20 8 0 15 -9 15 -20z"/>
<path d="M1700 985 l0 -135 101 0 100 0 -3 38 -3 37 -52 3 c-62 4 -72 22 -13
22 39 0 40 1 40 35 0 34 -1 35 -40 35 -59 0 -49 18 13 22 l52 3 3 38 3 37
-100 0 -101 0 0 -135z"/>
<path d="M965 672 c-67 -117 -67 -116 -10 -109 41 6 46 5 41 -9 -23 -60 -31
-133 -12 -113 13 14 116 192 116 201 0 7 -15 9 -46 4 -37 -5 -45 -3 -41 8 11
29 19 106 11 106 -5 0 -31 -39 -59 -88z"/>
<path d="M560 615 l0 -35 55 0 c48 0 55 2 55 20 0 11 5 20 10 20 6 0 10 -9 10
-20 0 -11 5 -20 10 -20 6 0 10 6 10 14 0 7 7 19 15 26 26 22 16 30 -37 29 -61
-1 -85 -14 -67 -35 9 -11 8 -14 -5 -14 -19 0 -21 21 -4 38 9 9 5 12 -20 12
-30 0 -32 -2 -32 -35z"/>
<path d="M1245 639 c-4 -6 -2 -15 5 -19 8 -5 7 -9 -4 -13 -35 -14 -12 -25 49
-25 54 0 65 3 70 19 8 23 23 25 21 3 -2 -31 21 -25 28 7 8 39 3 45 -26 32 -16
-7 -28 -7 -40 0 -19 12 -48 -6 -48 -29 0 -8 -4 -14 -8 -14 -5 0 -8 10 -8 22 1
24 -27 37 -39 17z m92 -31 c-3 -8 -6 -5 -6 6 -1 11 2 17 5 13 3 -3 4 -12 1
-19z"/>
<path d="M1435 638 c-9 -25 2 -73 16 -70 21 5 40 34 37 57 -3 23 -45 34 -53
13z"/>
<path d="M730 590 c0 -5 7 -10 15 -10 8 0 15 5 15 10 0 6 -7 10 -15 10 -8 0
-15 -4 -15 -10z"/>
<path d="M612 497 c-11 -13 -72 -134 -72 -142 0 -13 104 -56 124 -51 13 3 33
27 51 60 36 67 32 78 -42 118 -39 22 -53 25 -61 15z m58 -78 c0 -8 -17 -46
-25 -57 -1 -1 -9 0 -18 3 -14 6 -14 9 1 36 17 28 42 40 42 18z"/>
<path d="M1325 487 c-46 -26 -55 -55 -30 -94 15 -22 22 -24 53 -20 34 6 35 5
18 -8 -11 -8 -23 -15 -28 -15 -10 0 -10 -21 1 -38 7 -11 16 -10 48 6 52 27 67
46 59 76 -7 30 -35 59 -50 53 -6 -2 -22 -7 -36 -11 -21 -6 -19 -4 8 13 28 18
31 24 22 41 -13 25 -16 25 -65 -3z"/>
<path d="M777 424 c-2 -5 -10 -36 -17 -69 -6 -33 -14 -68 -16 -77 -4 -13 6
-19 51 -28 31 -6 63 -9 71 -6 20 8 18 35 -3 42 -10 3 -27 10 -38 15 -17 7 -15
8 10 6 24 -2 31 2 33 19 2 16 -4 25 -25 33 -26 10 -24 10 13 5 36 -5 42 -3 47
16 4 16 -1 23 -19 31 -40 14 -101 22 -107 13z"/>
<path d="M1114 406 c-3 -7 3 -46 14 -87 21 -82 22 -83 110 -59 45 12 53 31 33
83 -8 20 -15 24 -36 19 -22 -4 -26 -9 -22 -28 2 -13 -1 -25 -8 -28 -8 -3 -17
16 -25 55 -11 52 -16 59 -37 59 -13 0 -26 -6 -29 -14z"/>
<path d="M963 398 c-18 -23 -33 -80 -33 -124 0 -42 1 -44 30 -44 23 0 30 4 30
20 0 11 7 20 15 20 8 0 15 -9 15 -20 0 -16 7 -20 30 -20 30 0 30 1 30 53 -1
28 -9 68 -18 87 -14 29 -23 36 -53 38 -21 2 -40 -2 -46 -10z m51 -63 c3 -9 0
-15 -9 -15 -9 0 -12 6 -9 15 4 8 7 15 9 15 2 0 5 -7 9 -15z"/>
</g>
</svg>
